<svg version="1.1" xmlns="http://www.w3.org/2000/svg" xmlns:xlink="http://www.w3.org/1999/xlink" x="0px" y="0px" viewBox="0 0 48 48" xml:space="preserve" width="30" height="30"><g class="nc-icon-wrapper" fill="#444444"><path fill="#444444" d="M10,1H2C1.447,1,1,1.447,1,2v8c0,0.553,0.447,1,1,1h8c0.553,0,1-0.447,1-1V2C11,1.447,10.553,1,10,1z"></path> <path fill="#444444" d="M10,19H2c-0.553,0-1,0.447-1,1v8c0,0.553,0.447,1,1,1h8c0.553,0,1-0.447,1-1v-8C11,19.447,10.553,19,10,19z"></path> <path data-color="color-2" fill="#444444" d="M10,37H2c-0.553,0-1,0.447-1,1v8c0,0.553,0.447,1,1,1h8c0.553,0,1-0.447,1-1v-8 C11,37.447,10.553,37,10,37z"></path> <path fill="#444444" d="M28,1h-8c-0.553,0-1,0.447-1,1v8c0,0.553,0.447,1,1,1h8c0.553,0,1-0.447,1-1V2C29,1.447,28.553,1,28,1z"></path> <path data-color="color-2" fill="#444444" d="M28,19h-8c-0.553,0-1,0.447-1,1v8c0,0.553,0.447,1,1,1h8c0.553,0,1-0.447,1-1v-8 C29,19.447,28.553,19,28,19z"></path> <path fill="#444444" d="M28,37h-8c-0.553,0-1,0.447-1,1v8c0,0.553,0.447,1,1,1h8c0.553,0,1-0.447,1-1v-8C29,37.447,28.553,37,28,37z "></path> <path data-color="color-2" fill="#444444" d="M46,1h-8c-0.553,0-1,0.447-1,1v8c0,0.553,0.447,1,1,1h8c0.553,0,1-0.447,1-1V2 C47,1.447,46.553,1,46,1z"></path> <path fill="#444444" d="M46,19h-8c-0.553,0-1,0.447-1,1v8c0,0.553,0.447,1,1,1h8c0.553,0,1-0.447,1-1v-8C47,19.447,46.553,19,46,19z "></path> <path fill="#444444" d="M46,37h-8c-0.553,0-1,0.447-1,1v8c0,0.553,0.447,1,1,1h8c0.553,0,1-0.447,1-1v-8C47,37.447,46.553,37,46,37z "></path></g></svg>