<svg version="1.1" xmlns="http://www.w3.org/2000/svg" xmlns:xlink="http://www.w3.org/1999/xlink" x="0px" y="0px" viewBox="0 0 48 48" xml:space="preserve" width="30" height="30"><g class="nc-icon-wrapper" fill="#444444"><path fill="#444444" d="M30,3H2C1.4,3,1,3.4,1,4v8c0,0.6,0.4,1,1,1h28c0.6,0,1-0.4,1-1V4C31,3.4,30.6,3,30,3z"></path> <path fill="#444444" d="M30,19H2c-0.6,0-1,0.4-1,1v8c0,0.6,0.4,1,1,1h28c0.6,0,1-0.4,1-1v-8C31,19.4,30.6,19,30,19z"></path> <path fill="#444444" d="M30,35H2c-0.6,0-1,0.4-1,1v8c0,0.6,0.4,1,1,1h28c0.6,0,1-0.4,1-1v-8C31,35.4,30.6,35,30,35z"></path> <path data-color="color-2" fill="#444444" d="M46,3h-8c-0.6,0-1,0.4-1,1v40c0,0.6,0.4,1,1,1h8c0.6,0,1-0.4,1-1V4C47,3.4,46.6,3,46,3z"></path></g></svg>